<?xml version="1.0" encoding="UTF-8" standalone="no"?>
<!-- Created with Inkscape (http://www.inkscape.org/) -->

<svg
   width="200"
   height="200"
   viewBox="0 0 52.916669 52.916667"
   version="1.1"
   id="svg9374"
   inkscape:version="1.1.2 (0a00cf5339, 2022-02-04)"
   sodipodi:docname="stream_requirement_color.svg"
   inkscape:export-filename="/home/micklich/streampipes/share/SP_general/static_req/stream_requirement_color.png"
   inkscape:export-xdpi="96"
   inkscape:export-ydpi="96"
   xmlns:inkscape="http://www.inkscape.org/namespaces/inkscape"
   xmlns:sodipodi="http://sodipodi.sourceforge.net/DTD/sodipodi-0.dtd"
   xmlns="http://www.w3.org/2000/svg"
   xmlns:svg="http://www.w3.org/2000/svg">
  <sodipodi:namedview
     id="namedview9376"
     pagecolor="#ffffff"
     bordercolor="#666666"
     borderopacity="1.0"
     inkscape:pageshadow="2"
     inkscape:pageopacity="0.0"
     inkscape:pagecheckerboard="0"
     inkscape:document-units="mm"
     showgrid="false"
     inkscape:zoom="1.3600476"
     inkscape:cx="-44.85137"
     inkscape:cy="-15.440636"
     inkscape:window-width="1920"
     inkscape:window-height="1012"
     inkscape:window-x="1920"
     inkscape:window-y="40"
     inkscape:window-maximized="1"
     inkscape:current-layer="layer1"
     units="px"
     width="200px" />
  <defs
     id="defs9371" />
  <g
     inkscape:label="Ebene 1"
     inkscape:groupmode="layer"
     id="layer1">
    <g
       id="g98033"
       transform="matrix(2.1626231,0,0,2.1626231,-83.409249,-275.36365)">
      <path
         id="path89306"
         d="m 43.971279,134.59472 h 12.039373 v 12.04347 H 43.971279 Z"
         style="fill:#f7f7f7;fill-opacity:1;fill-rule:nonzero;stroke:#ffa23b;stroke-width:0.562567px;stroke-linecap:round;stroke-linejoin:bevel;stroke-miterlimit:4;stroke-dasharray:none;stroke-opacity:1"
         inkscape:connector-curvature="0" />
      <path
         id="path89308"
         d="m 42.796723,133.39773 h 14.437428 v 14.43742 H 42.796723 Z"
         style="fill:none;stroke:#ffa23b;stroke-width:0.562567px;stroke-linecap:round;stroke-linejoin:round;stroke-miterlimit:4;stroke-dasharray:none;stroke-opacity:1"
         inkscape:connector-curvature="0" />
      <g
         style="fill:#3a4650;stroke-width:24.8499"
         id="g89320"
         transform="matrix(0.08333333,0,0,0.08333334,52.390514,127.95371)">
        <g
           id="g89318"
           style="fill:#3a4650">
          <g
             id="g89312"
             style="fill:#3a4650">
            <path
               d="M 80,71.2 V 74 c 0,3.3 -2.7,6 -6,6 H 26 c -3.3,0 -6,-2.7 -6,-6 v -2.8 c 0,-7.3 8.5,-11.7 16.5,-15.2 0.3,-0.1 0.5,-0.2 0.8,-0.4 0.6,-0.3 1.3,-0.3 1.9,0.1 3.2,2.1 6.9,3.3 10.8,3.3 3.9,0 7.6,-1.2 10.8,-3.2 0.6,-0.4 1.3,-0.4 1.9,-0.1 0.3,0.1 0.5,0.2 0.8,0.4 8,3.4 16.5,7.8 16.5,15.1 z"
               id="path89310"
               style="fill:#3a4650" />
          </g>
          <g
             id="g89316"
             style="fill:#3a4650">
            <ellipse
               cx="50"
               cy="36.5"
               rx="14.9"
               ry="16.5"
               id="ellipse89314"
               style="fill:#3a4650" />
          </g>
        </g>
      </g>
      <g
         id="g89326"
         transform="translate(4.6665513,40.160181)">
        <text
           xml:space="preserve"
           style="font-style:normal;font-weight:normal;font-size:2.11667px;line-height:1.25;font-family:sans-serif;fill:#000000;fill-opacity:1;stroke:none;stroke-width:0.264583"
           x="34.124313"
           y="102.33045"
           id="text89324"><tspan
             sodipodi:role="line"
             id="tspan89322"
             style="font-style:normal;font-variant:normal;font-weight:500;font-stretch:normal;font-size:2.46944px;font-family:Roboto;-inkscape-font-specification:'Roboto, Medium';font-variant-ligatures:normal;font-variant-caps:normal;font-variant-numeric:normal;font-variant-east-asian:normal;stroke-width:0.264583"
             x="34.124313"
             y="102.33045" /></text>
      </g>
    </g>
    <g
       id="g9010"
       transform="matrix(0.26799382,0,0,0.26799382,22.731234,25.649329)">
      <rect
         x="-23.528614"
         fill="none"
         width="43.252464"
         height="43.252464"
         id="rect8995"
         y="7.5674958"
         style="stroke-width:2.16262" />
      <g
         id="g8999"
         transform="matrix(2.8243854,0,0,2.8243854,-32.493656,11.837701)"
         style="fill:#3a4650;stroke:#3a4650">
        <g
           style="fill:#3a4650;stroke:#3a4650"
           id="g9551"
           transform="matrix(0.04081635,0,0,0.04081635,4.5399503,-9.8514342)">
          <g
             id="g9537"
             style="fill:#3a4650;stroke:#3a4650">
            <path
               d="m 114.808,322.637 c -3.91,-3.931 -10.873,-3.931 -14.782,0 L 2.607,428.892 c -3.634,4.123 -3.447,10.355 0.427,14.243 l 43.581,43.813 c 4.206,3.993 10.601,3.993 14.325,0.438 l 105.701,-97.938 c 4.047,-4.063 4.047,-10.64 0,-14.703 z M 54.439,465.25 24.704,435.357 l 50.397,-57.18 36.215,36.41 z m 72.038,-64.989 -37.127,-37.326 18.066,-18.164 37.127,37.326 z"
               id="path9525"
               style="fill:#3a4650;stroke:#3a4650" />
            <path
               d="m 351.47,304.704 c -29.016,0 -52.537,23.523 -52.537,52.54 0,29.016 23.521,52.539 52.537,52.539 29.016,0 52.537,-23.523 52.537,-52.539 0,-29.017 -23.522,-52.54 -52.537,-52.54 z m 0,84.31 c -17.545,0 -31.769,-14.224 -31.769,-31.77 0,-17.546 14.224,-31.771 31.769,-31.771 17.546,0 31.769,14.225 31.769,31.771 0,17.547 -14.224,31.77 -31.769,31.77 z"
               id="path9527"
               style="fill:#3a4650;stroke:#3a4650" />
            <path
               d="m 378.771,157.05 c -29.016,0 -52.537,23.523 -52.537,52.54 0,29.016 23.522,52.539 52.537,52.539 29.016,0 52.537,-23.523 52.537,-52.539 0,-29.017 -23.521,-52.54 -52.537,-52.54 z m 0,84.31 c -17.545,0 -31.769,-14.224 -31.769,-31.77 0,-17.546 14.224,-31.771 31.769,-31.771 17.546,0 31.769,14.225 31.769,31.771 0,17.546 -14.223,31.77 -31.769,31.77 z"
               id="path9529"
               style="fill:#3a4650;stroke:#3a4650" />
            <path
               d="m 134.568,86.664 c -29.016,0 -52.537,23.523 -52.537,52.54 0,29.016 23.522,52.539 52.537,52.539 29.015,0 52.537,-23.523 52.537,-52.539 0,-29.017 -23.522,-52.54 -52.537,-52.54 z m 0,84.31 c -17.545,0 -31.769,-14.224 -31.769,-31.77 0,-17.546 14.224,-31.771 31.769,-31.771 17.546,0 31.769,14.225 31.769,31.771 0,17.546 -14.224,31.77 -31.769,31.77 z"
               id="path9531"
               style="fill:#3a4650;stroke:#3a4650" />
            <path
               d="m 333.981,111.759 c 0,-29.017 -23.522,-52.54 -52.537,-52.54 -29.015,0 -52.537,23.523 -52.537,52.54 0,29.016 23.521,52.539 52.537,52.539 29.016,0 52.537,-23.523 52.537,-52.539 z m -52.537,31.77 c -17.545,0 -31.769,-14.224 -31.769,-31.77 0,-17.546 14.223,-31.771 31.769,-31.771 17.546,0 31.769,14.225 31.769,31.771 0,17.546 -14.223,31.77 -31.769,31.77 z"
               id="path9533"
               style="fill:#3a4650;stroke:#3a4650" />
            <path
               d="M 416.848,73.562 C 369.658,26.126 306.918,0 240.185,0 173.452,0 110.711,26.126 63.521,73.562 44.07,93.111 28.065,115.563 15.954,140.273 c -12.732,25.984 -11.388,56.538 3.599,81.749 15.384,25.862 42.369,42.06 72.189,43.313 l 44.826,1.888 c -7.136,13.057 -11.684,27.586 -13.355,43.096 -0.337,3.125 0.753,6.241 2.973,8.471 l 44.294,44.524 c 2.001,2.006 4.673,3.075 7.396,3.075 1.405,0 2.83,-0.286 4.174,-0.876 16.679,-7.299 31.149,-20.443 40.893,-35.806 0.075,0.913 0.135,1.827 0.173,2.746 l 2.825,67.84 c 1.95,46.825 41.107,84.925 87.288,84.925 12.91,0 25.438,-2.962 37.238,-8.796 24.593,-12.189 46.925,-28.275 66.381,-47.834 C 464.023,381.171 490,318.126 490,251.069 490,184.023 464.023,120.979 416.848,73.562 Z M 215.119,288.731 c -0.127,19.834 -15.424,42.957 -35.202,54.503 L 144.584,307.72 c 3.08,-19.63 11.82,-37.121 25.453,-50.836 14.849,-14.927 48.452,-19.732 71.706,-21.23 -12.854,13.43 -26.497,32.51 -26.624,53.077 z m 186.946,125.153 c -17.837,17.93 -38.312,32.684 -60.853,43.842 -8.893,4.41 -18.311,6.638 -27.983,6.638 -35.15,0 -64.96,-29.129 -66.457,-64.948 l -2.825,-67.841 c -0.498,-11.993 -3.39,-23.549 -8.593,-34.393 0.022,-0.161 0.036,-0.319 0.057,-0.479 0.18,-1.373 0.315,-2.743 0.407,-4.111 0.008,-0.113 0.02,-0.228 0.028,-0.341 0,0 -0.001,0.001 -0.002,0.001 0.07,-1.132 0.119,-2.263 0.126,-3.388 0.143,-22.705 30.18,-46.323 40.037,-55.603 6.191,-5.829 11.053,-19.111 -14.518,-19.111 -29.261,0 -81.974,3.636 -106.236,28.031 -1.54,1.548 -3.009,3.149 -4.446,4.773 L 92.619,244.502 C 69.859,243.544 49.247,231.153 37.477,211.36 25.932,191.944 24.909,169.381 34.678,149.455 45.785,126.781 60.461,106.194 78.305,88.264 121.549,44.788 179.043,20.852 240.185,20.852 c 61.143,0 118.636,23.937 161.88,67.412 43.261,43.486 67.084,101.308 67.084,162.804 0,61.509 -23.823,119.329 -67.084,162.816 z"
               id="path9535"
               style="fill:#3a4650;stroke:#3a4650" />
          </g>
        </g>
      </g>
    </g>
  </g>
</svg>
